<svg xmlns="http://www.w3.org/2000/svg" viewBox="0 0 150.00916 35.14807"><polygon points="0 0.495 0 27.582 5.417 27.582 27.086 27.582 27.086 22.164 5.417 22.164 5.417 16.747 27.086 16.747 27.086 11.33 5.417 11.33 5.417 5.913 27.086 5.913 27.086 0.495 5.417 0.495 0 0.495"/><path d="M43.16711,7.58264a6.50345,6.50345,0,0,0-5.4599,2.2757h-.9859V8.07611H31.603v27.072h5.308v-9.3659h.9859c1.02368,1.36523,2.57855,2.27471,5.27026,2.27471,5.11933,0,8.26575-4.2843,8.26575-10.23663C51.43286,11.94336,48.32416,7.58264,43.16711,7.58264ZM41.46136,23.6604c-3.2984,0-4.74-2.76813-4.74-5.83911s1.44165-5.80145,4.74-5.80145c3.18512,0,4.66352,2.57855,4.66352,5.80145S44.64648,23.6604,41.46136,23.6604Z"/><rect x="55.18695" width="5.38342" height="4.74005"/><rect x="55.22467" y="8.07611" width="5.30798" height="19.49036"/><path d="M77.34454,7.58264a6.40306,6.40306,0,0,0-5.42523,2.2757h-.9859V8.07611H65.81506V27.56647h5.308V17.2146c0-2.61621,1.63031-4.92969,4.322-4.92969,2.46637,0,3.79181,1.51715,3.79181,4.24658v11.035h5.311V15.58331C84.54791,10.57819,82.23853,7.58264,77.34454,7.58264Z"/><path d="M98.11853,7.58264c-6.142,0-10.08472,4.1344-10.08472,10.23865s3.94275,10.23657,10.08472,10.23657c6.21845,0,10.08569-4.13232,10.08569-10.23657C108.20422,11.716,104.337,7.58264,98.11853,7.58264Zm0,16.07776c-3.29834,0-4.77673-2.69269-4.77673-5.83911,0-3.10974,1.47839-5.80145,4.77673-5.80145,3.3371,0,4.77777,2.69171,4.77777,5.80145C102.8963,20.96771,101.45563,23.6604,98.11853,23.6604Z"/><polygon points="120.983 22.826 119.351 22.826 115.332 8.076 109.911 8.076 115.446 27.565 124.664 27.565 130.272 8.076 124.851 8.076 120.983 22.826"/><path d="M141.17554,7.58362c-4.70233,0-8.19031,2.31244-8.30451,6.06653h5.27124c.15088-1.32752,1.17554-2.085,3.29834-2.085,2.31238,0,3.45026,1.02363,3.45026,3.03327v.49243H139.691c-5.7627,0-7.9242,3.45026-7.9242,6.48352,0,3.45026,2.50312,6.48352,6.90058,6.48352a6.71323,6.71323,0,0,0,5.45984-2.16046h.98083l.00714,1.66907h4.894V14.90118C150.00916,9.6687,146.44574,7.58362,141.17554,7.58362Zm3.70514,12.17077A4.0367,4.0367,0,0,1,140.5199,23.85c-2.16046,0-3.45026-.91046-3.45026-2.69269s1.36524-2.61627,3.63995-2.61627h4.17109Z"/></svg>